# xmcd
#
# Track frame offsets:
# 150
# 15685
# 28737
# 43505
# 58912
# 71545
# 87310
# 98615
# 111360
# 125872
# 138400
# 150115
# 166797
# 181162
# 192757
#
# Disc length: 2763 seconds
#
#
# Revision: 0
# Processed by: cddbd v1.5PL3 Copyright (c) Steve Scherf et al.
# Submitted via: FreeRIP 2.53 
#
DISCID=c10ac90f
DTITLE=Various Artist - México Lindo CD 2
DYEAR=2004
DGENRE=Latin
TTITLE0=Cucurrucucu Paloma/Pedro Infante
TTITLE1=Rayito de Luna/Los Panchos
TTITLE2=La Hiedra/Los Panchos
TTITLE3=Caballo Prieto Azabache/Pacol Michel
TTITLE4=El Siete Mares/Cruz Infante
TTITLE5=Juan Charrasqueado/Jorge Negrete
TTITLE6=Las Mañanitas Tapatias/Mariachi Silvestre Vargas
TTITLE7=La Negra/Mariachi Silvestre Vargas
TTITLE8=Que Bonito Amor/Amalia Mendoza
TTITLE9=Cuando Vivas Conmigo/Los Dandys
TTITLE10=Que Te Vaya Bonito/Los Tres Ases
TTITLE11=Pa´ Todo el Año/Los Tres Caballeros
TTITLE12=Guadalajara/Mariachi Silvestre Vargas
TTITLE13=La Adelita/Mariachi Silvestre Vargas
TTITLE14=La Marcha de Zacatecas/Marchas Mexicanas
EXTD=
EXTT0=
EXTT1=
EXTT2=
EXTT3=
EXTT4=
EXTT5=
EXTT6=
EXTT7=
EXTT8=
EXTT9=
EXTT10=
EXTT11=
EXTT12=
EXTT13=
EXTT14=
PLAYORDER=
